<svg width="54" height="54" viewBox="0 0 54 54" fill="none" xmlns="http://www.w3.org/2000/svg">
<circle cx="27" cy="27" r="27" fill="#62BF5E"/>
<path d="M39.1668 26.0402H42.0834C42.0834 18.5589 36.4353 12.9166 28.9438 12.9166V15.8333C34.8676 15.8333 39.1668 20.1252 39.1668 26.0402Z" fill="white"/>
<path d="M28.9583 21.6667C32.0251 21.6667 33.3333 22.9748 33.3333 26.0417H36.2499C36.2499 21.3386 33.6614 18.75 28.9583 18.75V21.6667ZM33.9487 29.6044C33.6684 29.3497 33.3002 29.2139 32.9217 29.2256C32.5432 29.2373 32.1841 29.3956 31.9201 29.6671L28.4303 33.2561C27.5903 33.0956 25.9016 32.5692 24.1633 30.8352C22.4249 29.0954 21.8985 27.4023 21.7424 26.5681L25.3285 23.0769C25.6003 22.8131 25.7589 22.4539 25.7706 22.0753C25.7823 21.6967 25.6462 21.3284 25.3912 21.0484L20.0026 15.1231C19.7475 14.8422 19.3929 14.6718 19.0141 14.6481C18.6353 14.6244 18.2623 14.7493 17.9741 14.9963L14.8095 17.7102C14.5574 17.9633 14.4069 18.3001 14.3866 18.6567C14.3647 19.0213 13.9476 27.6575 20.6443 34.3571C26.4864 40.1977 33.8043 40.625 35.8197 40.625C36.1143 40.625 36.2951 40.6163 36.3433 40.6134C36.6998 40.5934 37.0364 40.4422 37.2883 40.189L40.0008 37.0229C40.2479 36.735 40.373 36.362 40.3496 35.9832C40.3262 35.6045 40.1561 35.2497 39.8753 34.9944L33.9487 29.6044Z" fill="white"/>
</svg>
