<svg width="250" height="250" viewBox="0 0 250 250" fill="none" xmlns="http://www.w3.org/2000/svg">
<g clip-path="url(#clip0_33_2)">
<path d="M66.0773 214.115L70.1642 216.135C87.1955 226.235 106.269 230.948 125.343 230.948C185.289 230.948 234.336 182.469 234.336 123.217C234.336 94.9382 222.755 67.332 202.32 47.1322C181.883 26.9324 154.634 15.4865 125.343 15.4865C65.3967 15.4865 16.3488 63.9652 17.0305 123.891C17.0305 144.09 23.1613 163.617 33.3791 180.449L36.1037 184.489L25.2053 224.215L66.0773 214.115Z" fill="#00E676"/>
<path d="M213.899 36.3591C190.738 12.7934 158.722 0 126.023 0C56.541 0 0.681641 55.8851 1.3623 123.89C1.3623 145.436 7.49316 166.31 17.7119 185.162L0 249.127L66.0772 232.294C84.4697 242.395 104.905 247.108 125.343 247.108C194.145 247.108 250.004 191.222 250.004 123.218C250.004 90.2249 237.061 59.2519 213.9 36.3591H213.899ZM126.023 226.236C107.631 226.236 89.2383 221.523 73.5703 212.097L69.4834 210.076L29.9736 220.176L40.1914 181.797L37.4668 177.757C7.49316 129.952 21.7988 66.6583 70.8457 37.0319C119.893 7.40637 183.245 21.5463 213.219 70.0251C243.191 118.504 228.886 181.123 179.84 210.749C164.171 220.848 145.098 226.235 126.023 226.235V226.236ZM185.97 151.498L178.477 148.131C178.477 148.131 167.578 143.418 160.766 140.051C160.084 140.051 159.403 139.377 158.722 139.377C156.678 139.377 155.315 140.051 153.953 140.725C153.953 140.725 153.272 141.398 143.735 152.171C143.054 153.517 141.691 154.191 140.329 154.191H139.647C138.967 154.191 137.604 153.517 136.923 152.845L133.517 151.498C126.023 148.131 119.212 144.091 113.762 138.705C112.399 137.358 110.355 136.012 108.993 134.665C104.225 129.952 99.4561 124.565 96.0508 118.505L95.3691 117.158C94.6885 116.485 94.6885 115.812 94.0068 114.465C94.0068 113.119 94.0068 111.772 94.6885 111.098C94.6885 111.098 97.4131 107.732 99.4561 105.712C100.819 104.365 101.5 102.346 102.862 100.999C104.225 98.9788 104.906 96.2857 104.225 94.2654C103.544 90.8986 95.3691 72.7191 93.3262 68.6795C91.9629 66.6593 90.6016 65.9865 88.5576 65.3127H81.0645C79.7012 65.3127 78.3398 65.9865 76.9766 65.9865L76.2949 66.6593C74.9326 67.333 73.5703 68.6795 72.208 69.3523C70.8457 70.6998 70.1641 72.0454 68.8018 73.3929C64.0332 79.4527 61.3086 86.8591 61.3086 94.2654C61.3086 99.6515 62.6709 105.039 64.7148 109.752L65.3965 111.772C71.5273 124.565 79.7012 136.012 90.6016 146.111L93.3262 148.804C95.3691 150.824 97.4131 152.171 98.7754 154.19C113.081 166.311 129.43 175.064 147.822 179.777C149.866 180.45 152.591 180.45 154.635 181.124H161.446C164.853 181.124 168.939 179.777 171.665 178.43C173.708 177.084 175.07 177.084 176.433 175.737L177.796 174.39C179.158 173.043 180.521 172.371 181.883 171.024C183.245 169.678 184.607 168.331 185.289 166.984C186.651 164.291 187.332 160.924 188.014 157.558V152.845C188.014 152.845 187.332 152.171 185.97 151.498V151.498Z" fill="white"/>
</g>
<defs>
<clipPath id="clip0_33_2">
<rect width="250" height="250" fill="white"/>
</clipPath>
</defs>
</svg>
